<svg width="179" height="46" viewBox="0 0 179 46" fill="none" xmlns="http://www.w3.org/2000/svg">
<path d="M55.8916 35.9862V22.563H61.6197C64.1737 22.563 65.4496 23.637 65.4496 25.783C65.4496 27.5293 64.2007 28.8219 61.7051 29.6607L66.3155 35.9862H64.0217L59.7506 29.95V28.8156C62.317 28.4098 63.5992 27.4211 63.5992 25.8579C63.5992 24.6174 62.8873 23.9971 61.4615 23.9971H57.6296V35.9862H55.8916Z" fill="white"/>
<path d="M76.9204 22.563V23.9701H69.8789V28.4784H76.5936V29.8855H69.8789V34.5812H77.0619V35.9883H68.143V22.5651L76.9204 22.563Z" fill="white"/>
<path d="M80.1321 35.9862H78.3316L84.0285 22.563H85.9538L91.6819 35.9862H89.7545L88.0186 31.7629H83.5789L84.0556 30.3559H87.4358L84.9277 24.2698L80.1321 35.9862Z" fill="white"/>
<path d="M95.2474 22.563V34.5791H102.272V35.9862H93.5115V22.563H95.2474Z" fill="white"/>
<path d="M117.81 22.563V23.9701H110.769V28.4784H117.481V29.8855H110.769V34.5812H117.95V35.9883H109.031V22.5651L117.81 22.563Z" fill="white"/>
<path d="M120.391 35.52V33.9214C121.798 34.423 123.32 34.6728 124.952 34.6728C127.26 34.6728 128.417 33.8278 128.417 32.1376C128.417 30.6973 127.566 29.9771 125.863 29.9771H124.136C121.326 29.9771 119.923 28.7574 119.923 26.3159C119.923 23.7515 121.721 22.4673 125.32 22.4673C126.885 22.4673 128.34 22.6546 129.687 23.0293V24.6278C128.342 24.1283 126.885 23.8764 125.32 23.8764C122.881 23.8764 121.661 24.6903 121.661 26.3179C121.661 27.7583 122.485 28.4785 124.136 28.4785H125.863C128.725 28.4785 130.157 29.6982 130.157 32.1397C130.157 34.7686 128.421 36.082 124.954 36.082C123.32 36.0799 121.798 35.8925 120.391 35.52Z" fill="white"/>
<path d="M141.751 22.563V23.9701H137.526V35.9862H135.788V23.9701H131.564V22.563H141.751Z" fill="white"/>
<path d="M142.848 35.9862H141.043L146.742 22.563H148.667L154.393 35.9862H152.47L150.732 31.7629H146.29L146.769 30.3559H150.147L147.643 24.2698L142.848 35.9862Z" fill="white"/>
<path d="M163.879 22.563V23.9701H159.655V35.9862H157.917V23.9701H153.692V22.563H163.879Z" fill="white"/>
<path d="M174.721 22.563V23.9701H167.679V28.4784H174.392V29.8855H167.679V34.5812H174.862V35.9883H165.943V22.5651L174.721 22.563Z" fill="white"/>
<path d="M50.1719 41.8121L51.1917 43.8041L52.2304 41.8121H53.0983L51.5935 44.5055V45.95H50.7963V44.493L49.2956 41.8121H50.1719Z" fill="url(#paint0_linear_1861_1058)"/>
<path d="M57.3299 45.9792C57.0385 45.9792 56.7721 45.9209 56.5327 45.8023C56.2913 45.6815 56.0831 45.5254 55.9104 45.3277C55.7376 45.132 55.6065 44.9093 55.5128 44.6575C55.4192 44.4035 55.3713 44.1454 55.3713 43.8811C55.3713 43.6043 55.4212 43.3399 55.5212 43.0881C55.619 42.8362 55.7564 42.6114 55.9354 42.4178C56.1102 42.2222 56.3204 42.0682 56.5619 41.9537C56.8012 41.8392 57.0656 41.783 57.3487 41.783C57.6401 41.783 57.9065 41.8434 58.1479 41.9662C58.3873 42.089 58.5954 42.2492 58.7661 42.447C58.9368 42.6468 59.0679 42.8716 59.1595 43.1234C59.2532 43.3774 59.3011 43.6334 59.3011 43.8936C59.3011 44.1704 59.2511 44.4327 59.1512 44.6824C59.0534 44.9343 58.916 45.1549 58.7411 45.3464C58.5663 45.54 58.3582 45.694 58.1188 45.8085C57.8773 45.923 57.6151 45.9792 57.3299 45.9792ZM56.1831 43.8811C56.1831 44.0601 56.208 44.2328 56.2601 44.3994C56.3121 44.568 56.3891 44.7137 56.4869 44.8427C56.5848 44.9718 56.7055 45.0737 56.8512 45.1508C56.9948 45.2299 57.1593 45.2673 57.3403 45.2673C57.5277 45.2673 57.69 45.2278 57.8315 45.1487C57.9731 45.0675 58.0938 44.9613 58.1895 44.8323C58.2874 44.6991 58.3623 44.5513 58.4123 44.3848C58.4602 44.2183 58.4872 44.0518 58.4872 43.8811C58.4872 43.7021 58.4601 43.5293 58.406 43.3607C58.3519 43.1942 58.2728 43.0485 58.1771 42.9174C58.0751 42.7925 57.9585 42.6905 57.8149 42.6135C57.6734 42.5386 57.5131 42.499 57.3341 42.499C57.1488 42.499 56.9823 42.5406 56.8429 42.6197C56.7013 42.6988 56.5806 42.805 56.4807 42.934C56.3808 43.0652 56.3079 43.2109 56.2559 43.3774C56.208 43.5418 56.1831 43.7104 56.1831 43.8811Z" fill="url(#paint1_linear_1861_1058)"/>
<path d="M63.9988 45.2673C64.1903 45.2673 64.3506 45.2298 64.4796 45.1508C64.6108 45.0737 64.7148 44.9718 64.7919 44.8469C64.873 44.722 64.9292 44.5784 64.9625 44.4181C64.9958 44.2578 65.0104 44.0913 65.0104 43.9206V41.8101H65.8097V43.9206C65.8097 44.2058 65.7743 44.4701 65.7077 44.7199C65.6411 44.9697 65.5328 45.1861 65.3871 45.3714C65.2435 45.5587 65.0541 45.7044 64.8231 45.8147C64.5962 45.925 64.3214 45.9771 64.0009 45.9771C63.672 45.9771 63.391 45.9209 63.16 45.8064C62.9289 45.6919 62.7416 45.54 62.598 45.3506C62.4544 45.1632 62.3503 44.9447 62.2879 44.697C62.2234 44.4472 62.1901 44.1891 62.1901 43.9206V41.8101H62.9956V43.9206C62.9956 44.0955 63.0122 44.262 63.0434 44.4243C63.0767 44.5867 63.1329 44.7282 63.2141 44.8531C63.2911 44.978 63.3973 45.0779 63.5242 45.1528C63.6554 45.2319 63.8136 45.2673 63.9988 45.2673Z" fill="url(#paint2_linear_1861_1058)"/>
<path d="M68.9485 45.95V41.8121H70.7781C70.9696 41.8121 71.1444 41.8538 71.3068 41.9308C71.467 42.012 71.6086 42.1181 71.7231 42.2472C71.8396 42.3783 71.9312 42.524 71.9978 42.6905C72.0623 42.8529 72.0956 43.0194 72.0956 43.1859C72.0956 43.4544 72.0311 43.6979 71.8958 43.9186C71.7626 44.1392 71.5794 44.2974 71.3505 44.3952L72.3225 45.9521H71.415L70.5471 44.5659H69.754V45.9521L68.9485 45.95ZM69.754 43.8561H70.7615C70.8343 43.8561 70.903 43.8395 70.9696 43.8041C71.032 43.7708 71.0882 43.7229 71.134 43.6625C71.1819 43.6043 71.2173 43.5314 71.2464 43.4523C71.2735 43.3711 71.288 43.2816 71.288 43.188C71.288 43.0922 71.2714 43.0027 71.2423 42.9195C71.211 42.8383 71.1694 42.7696 71.1153 42.7092C71.0653 42.6489 71.0029 42.6031 70.9342 42.5698C70.8655 42.5365 70.7968 42.5219 70.7261 42.5219H69.754V43.8561Z" fill="url(#paint3_linear_1861_1058)"/>
<path d="M81.8659 42.5177H80.5504V45.95H79.7449V42.5177H78.4211V41.8121H81.8659V42.5177Z" fill="url(#paint4_linear_1861_1058)"/>
<path d="M83.914 45.95L85.5438 41.8121H86.1974L87.8229 45.95H86.9737L86.5928 44.9176H85.1421L84.7612 45.95H83.914ZM85.8727 42.6801L85.2774 44.3536H86.4492L85.8727 42.6801Z" fill="url(#paint5_linear_1861_1058)"/>
<path d="M93.3741 45.4838C93.0556 45.8147 92.6872 45.9792 92.273 45.9792C92.0087 45.9792 91.761 45.923 91.5258 45.8043C91.2947 45.6878 91.0907 45.5317 90.918 45.336C90.7452 45.1383 90.6099 44.9135 90.51 44.6575C90.4122 44.3994 90.3622 44.1329 90.3622 43.8561C90.3622 43.573 90.4122 43.3066 90.51 43.0548C90.6099 42.805 90.7473 42.5844 90.9242 42.397C91.1012 42.2097 91.3093 42.0598 91.5466 41.9474C91.7859 41.835 92.0461 41.783 92.3271 41.783C92.7039 41.783 93.0265 41.8642 93.295 42.0265C93.5635 42.1889 93.7654 42.4095 93.9007 42.6843L93.2992 43.1276C93.1993 42.9195 93.0598 42.7634 92.885 42.6551C92.706 42.5448 92.5103 42.4928 92.3001 42.4928C92.1273 42.4928 91.9733 42.5302 91.8359 42.6031C91.6985 42.6759 91.5799 42.7779 91.4821 42.907C91.3842 43.036 91.3072 43.1838 91.2552 43.3503C91.2011 43.5168 91.174 43.6938 91.174 43.8811C91.174 44.0767 91.2032 44.2578 91.2614 44.4264C91.3197 44.595 91.4009 44.7428 91.505 44.8656C91.6111 44.9926 91.7339 45.0883 91.8776 45.1633C92.017 45.234 92.1752 45.2694 92.3459 45.2694C92.7288 45.2694 93.0723 45.0821 93.3783 44.7033V44.4119H92.5457V43.8228H94.0422V45.95H93.3804V45.4838H93.3741Z" fill="url(#paint6_linear_1861_1058)"/>
<path d="M97.0624 45.95V41.8121H97.8679V45.2444H99.9785V45.95H97.0624Z" fill="url(#paint7_linear_1861_1058)"/>
<path d="M102.828 45.95V41.8163H103.634V45.95H102.828Z" fill="url(#paint8_linear_1861_1058)"/>
<path d="M107.63 43.2983V45.95H106.824V41.8121H107.451L109.605 44.5284V41.8163H110.411V45.95H109.757L107.63 43.2983Z" fill="url(#paint9_linear_1861_1058)"/>
<path d="M116.48 45.2444V45.95H113.606V41.8121H116.426V42.5177H114.409V43.5148H116.151V44.1662H114.409V45.2465L116.48 45.2444Z" fill="url(#paint10_linear_1861_1058)"/>
<path d="M125.655 42.8986C125.626 42.8695 125.578 42.8341 125.505 42.7863C125.434 42.7405 125.347 42.6947 125.245 42.651C125.141 42.6072 125.029 42.5677 124.908 42.5365C124.789 42.5032 124.666 42.4886 124.542 42.4886C124.321 42.4886 124.154 42.5302 124.046 42.6114C123.936 42.6947 123.884 42.8112 123.884 42.9569C123.884 43.0423 123.905 43.113 123.944 43.1692C123.986 43.2254 124.044 43.2754 124.123 43.3191C124.2 43.3628 124.298 43.4003 124.417 43.4357C124.535 43.471 124.673 43.5064 124.827 43.5481C125.031 43.6001 125.214 43.6604 125.38 43.7229C125.543 43.7833 125.684 43.8603 125.799 43.9539C125.913 44.0476 126.003 44.16 126.063 44.289C126.126 44.4202 126.157 44.5804 126.157 44.7698C126.157 44.9905 126.115 45.1799 126.03 45.3381C125.949 45.4942 125.834 45.6232 125.697 45.7211C125.557 45.8168 125.393 45.8876 125.208 45.9334C125.02 45.9771 124.827 46 124.625 46C124.315 46 124.007 45.9542 123.705 45.8605C123.401 45.7669 123.13 45.6378 122.889 45.465L123.243 44.7719C123.28 44.8073 123.341 44.8531 123.434 44.9072C123.524 44.9634 123.634 45.0196 123.757 45.0758C123.882 45.132 124.019 45.182 124.169 45.2174C124.321 45.259 124.477 45.2777 124.637 45.2777C125.081 45.2777 125.299 45.1362 125.299 44.851C125.299 44.7574 125.274 44.6804 125.226 44.62C125.174 44.5555 125.104 44.5013 125.01 44.4556C124.916 44.4098 124.802 44.3661 124.671 44.3265C124.539 44.287 124.392 44.2453 124.227 44.2037C124.03 44.1496 123.857 44.0892 123.713 44.0247C123.567 43.9602 123.445 43.8873 123.347 43.802C123.249 43.7167 123.176 43.6147 123.128 43.4981C123.08 43.3836 123.055 43.2462 123.055 43.086C123.055 42.8757 123.097 42.6905 123.174 42.5261C123.251 42.3637 123.361 42.2242 123.497 42.1181C123.634 42.0099 123.794 41.9266 123.977 41.8704C124.161 41.8163 124.356 41.7872 124.567 41.7872C124.858 41.7872 125.124 41.8309 125.37 41.9225C125.616 42.014 125.828 42.1223 126.011 42.2451L125.655 42.8986Z" fill="url(#paint11_linear_1861_1058)"/>
<path d="M129.1 45.95V41.8121H130.857C131.046 41.8121 131.223 41.8538 131.383 41.9308C131.544 42.012 131.681 42.1181 131.8 42.2472C131.918 42.3783 132.008 42.524 132.074 42.6905C132.141 42.8529 132.174 43.0194 132.174 43.1859C132.174 43.3607 132.141 43.5314 132.081 43.6979C132.018 43.8624 131.931 44.0081 131.816 44.1371C131.704 44.2641 131.568 44.3682 131.41 44.4452C131.252 44.5222 131.077 44.5638 130.886 44.5638H129.905V45.95H129.1ZM129.903 43.8561H130.836C130.984 43.8561 131.106 43.7978 131.206 43.6771C131.306 43.5543 131.354 43.392 131.354 43.1859C131.354 43.0818 131.337 42.9861 131.306 42.9049C131.275 42.8196 131.235 42.7509 131.183 42.6905C131.131 42.6301 131.073 42.5864 131.007 42.5594C130.938 42.5302 130.869 42.5157 130.798 42.5157H129.899V43.8561H129.903Z" fill="url(#paint12_linear_1861_1058)"/>
<path d="M134.335 45.95L135.964 41.8121H136.618L138.244 45.95H137.394L137.014 44.9176H135.563L135.182 45.95H134.335ZM136.295 42.6801L135.7 44.3536H136.872L136.295 42.6801Z" fill="url(#paint13_linear_1861_1058)"/>
<path d="M140.775 43.854C140.775 43.6022 140.818 43.3503 140.908 43.1047C140.997 42.8591 141.126 42.6364 141.295 42.4449C141.464 42.2492 141.672 42.091 141.915 41.9724C142.161 41.8517 142.44 41.7892 142.756 41.7892C143.125 41.7892 143.443 41.8746 143.714 42.0411C143.984 42.2076 144.184 42.4261 144.311 42.6926L143.693 43.1172C143.645 43.0006 143.585 42.9007 143.512 42.8237C143.439 42.7425 143.358 42.6801 143.27 42.6322C143.183 42.5885 143.093 42.551 143 42.5302C142.906 42.5094 142.817 42.4969 142.731 42.4969C142.54 42.4969 142.373 42.5386 142.23 42.6176C142.086 42.6988 141.967 42.805 141.872 42.9361C141.776 43.0672 141.703 43.215 141.653 43.3774C141.607 43.5439 141.582 43.7083 141.582 43.8707C141.582 44.0538 141.609 44.2308 141.666 44.3973C141.722 44.5679 141.803 44.7157 141.905 44.8448C142.007 44.9738 142.132 45.0758 142.275 45.1528C142.419 45.2298 142.577 45.2715 142.748 45.2715C142.837 45.2715 142.931 45.259 143.025 45.234C143.116 45.209 143.208 45.1736 143.293 45.1237C143.383 45.0737 143.464 45.0071 143.537 44.928C143.61 44.8469 143.67 44.7511 143.716 44.6387L144.373 45.0175C144.313 45.1716 144.224 45.311 144.103 45.4276C143.984 45.5462 143.849 45.6482 143.699 45.7294C143.549 45.8106 143.389 45.8709 143.222 45.9167C143.054 45.9583 142.892 45.9792 142.727 45.9792C142.44 45.9792 142.175 45.9167 141.936 45.7939C141.699 45.667 141.493 45.5046 141.318 45.3069C141.147 45.107 141.014 44.8802 140.916 44.6241C140.825 44.3765 140.775 44.1163 140.775 43.854Z" fill="url(#paint14_linear_1861_1058)"/>
<path d="M150.133 45.2444V45.95H147.258V41.8121H150.079V42.5177H148.062V43.5148H149.804V44.1662H148.062V45.2465L150.133 45.2444Z" fill="url(#paint15_linear_1861_1058)"/>
<path d="M160.317 41.8121V45.95H159.516V44.1829H157.641V45.95H156.835V41.8121H157.641V43.4856H159.516V41.8121H160.317Z" fill="url(#paint16_linear_1861_1058)"/>
<path d="M166.383 45.2444V45.95H163.508V41.8121H166.333V42.5177H164.314V43.5148H166.058V44.1662H164.314V45.2465L166.383 45.2444Z" fill="url(#paint17_linear_1861_1058)"/>
<path d="M169.361 45.95V41.8121H171.191C171.382 41.8121 171.559 41.8538 171.719 41.9308C171.882 42.012 172.021 42.1181 172.138 42.2472C172.252 42.3783 172.346 42.524 172.41 42.6905C172.475 42.8529 172.51 43.0194 172.51 43.1859C172.51 43.4544 172.444 43.6979 172.308 43.9186C172.175 44.1392 171.992 44.2974 171.763 44.3952L172.735 45.9521H171.828L170.958 44.5659H170.165V45.9521L169.361 45.95ZM170.167 43.8561H171.174C171.247 43.8561 171.316 43.8395 171.382 43.8041C171.447 43.7708 171.501 43.7229 171.549 43.6625C171.592 43.6043 171.63 43.5314 171.659 43.4523C171.688 43.3711 171.701 43.2816 171.701 43.188C171.701 43.0922 171.684 43.0027 171.657 42.9195C171.624 42.8383 171.584 42.7696 171.53 42.7092C171.478 42.6489 171.415 42.6031 171.347 42.5698C171.28 42.5365 171.214 42.5219 171.141 42.5219H170.167V43.8561Z" fill="url(#paint18_linear_1861_1058)"/>
<path d="M178.497 45.2444V45.95H175.622V41.8121H178.442V42.5177H176.426V43.5148H178.17V44.1662H176.426V45.2465L178.497 45.2444Z" fill="url(#paint19_linear_1861_1058)"/>
<path d="M8.657 45.2858V30.1215L35.2216 10.7193L42.5459 16.07L49.8845 10.7098L35.2216 0L0 25.7239V45.2858H8.657Z" fill="white"/>
<path d="M37.3454 45.2858V30.1215L63.91 10.7193L78.574 10.7098L63.91 0L28.6884 25.7239V45.2858H37.3454Z" fill="#DC5D27"/>
<defs>
<linearGradient id="paint0_linear_1861_1058" x1="49.2956" y1="43.8811" x2="53.0983" y2="43.8811" gradientUnits="userSpaceOnUse">
<stop stop-color="#FF7032"/>
<stop offset="1" stop-color="#FF7032"/>
</linearGradient>
<linearGradient id="paint1_linear_1861_1058" x1="55.3713" y1="43.8811" x2="59.3011" y2="43.8811" gradientUnits="userSpaceOnUse">
<stop stop-color="#FF7032"/>
<stop offset="1" stop-color="#FF7032"/>
</linearGradient>
<linearGradient id="paint2_linear_1861_1058" x1="62.1901" y1="43.8936" x2="65.8097" y2="43.8936" gradientUnits="userSpaceOnUse">
<stop stop-color="#FF7032"/>
<stop offset="1" stop-color="#FF7032"/>
</linearGradient>
<linearGradient id="paint3_linear_1861_1058" x1="68.9485" y1="43.8821" x2="72.3225" y2="43.8821" gradientUnits="userSpaceOnUse">
<stop stop-color="#FF7032"/>
<stop offset="1" stop-color="#FF7032"/>
</linearGradient>
<linearGradient id="paint4_linear_1861_1058" x1="78.4211" y1="43.8811" x2="81.8659" y2="43.8811" gradientUnits="userSpaceOnUse">
<stop stop-color="#FF7032"/>
<stop offset="1" stop-color="#FF7032"/>
</linearGradient>
<linearGradient id="paint5_linear_1861_1058" x1="83.914" y1="43.8811" x2="87.8229" y2="43.8811" gradientUnits="userSpaceOnUse">
<stop stop-color="#FF7032"/>
<stop offset="1" stop-color="#FF7032"/>
</linearGradient>
<linearGradient id="paint6_linear_1861_1058" x1="90.3622" y1="43.8811" x2="94.0422" y2="43.8811" gradientUnits="userSpaceOnUse">
<stop stop-color="#FF7032"/>
<stop offset="1" stop-color="#FF7032"/>
</linearGradient>
<linearGradient id="paint7_linear_1861_1058" x1="97.0624" y1="43.8811" x2="99.9785" y2="43.8811" gradientUnits="userSpaceOnUse">
<stop stop-color="#FF7032"/>
<stop offset="1" stop-color="#FF7032"/>
</linearGradient>
<linearGradient id="paint8_linear_1861_1058" x1="102.828" y1="43.8831" x2="103.634" y2="43.8831" gradientUnits="userSpaceOnUse">
<stop stop-color="#FF7032"/>
<stop offset="1" stop-color="#FF7032"/>
</linearGradient>
<linearGradient id="paint9_linear_1861_1058" x1="106.824" y1="43.8811" x2="110.411" y2="43.8811" gradientUnits="userSpaceOnUse">
<stop stop-color="#FF7032"/>
<stop offset="1" stop-color="#FF7032"/>
</linearGradient>
<linearGradient id="paint10_linear_1861_1058" x1="113.606" y1="43.8811" x2="116.48" y2="43.8811" gradientUnits="userSpaceOnUse">
<stop stop-color="#FF7032"/>
<stop offset="1" stop-color="#FF7032"/>
</linearGradient>
<linearGradient id="paint11_linear_1861_1058" x1="122.889" y1="43.8936" x2="126.157" y2="43.8936" gradientUnits="userSpaceOnUse">
<stop stop-color="#FF7032"/>
<stop offset="1" stop-color="#FF7032"/>
</linearGradient>
<linearGradient id="paint12_linear_1861_1058" x1="129.1" y1="43.8811" x2="132.174" y2="43.8811" gradientUnits="userSpaceOnUse">
<stop stop-color="#FF7032"/>
<stop offset="1" stop-color="#FF7032"/>
</linearGradient>
<linearGradient id="paint13_linear_1861_1058" x1="134.335" y1="43.8811" x2="138.244" y2="43.8811" gradientUnits="userSpaceOnUse">
<stop stop-color="#FF7032"/>
<stop offset="1" stop-color="#FF7032"/>
</linearGradient>
<linearGradient id="paint14_linear_1861_1058" x1="140.775" y1="43.8842" x2="144.373" y2="43.8842" gradientUnits="userSpaceOnUse">
<stop stop-color="#FF7032"/>
<stop offset="1" stop-color="#FF7032"/>
</linearGradient>
<linearGradient id="paint15_linear_1861_1058" x1="147.258" y1="43.8811" x2="150.133" y2="43.8811" gradientUnits="userSpaceOnUse">
<stop stop-color="#FF7032"/>
<stop offset="1" stop-color="#FF7032"/>
</linearGradient>
<linearGradient id="paint16_linear_1861_1058" x1="156.835" y1="43.8811" x2="160.317" y2="43.8811" gradientUnits="userSpaceOnUse">
<stop stop-color="#FF7032"/>
<stop offset="1" stop-color="#FF7032"/>
</linearGradient>
<linearGradient id="paint17_linear_1861_1058" x1="163.508" y1="43.8811" x2="166.383" y2="43.8811" gradientUnits="userSpaceOnUse">
<stop stop-color="#FF7032"/>
<stop offset="1" stop-color="#FF7032"/>
</linearGradient>
<linearGradient id="paint18_linear_1861_1058" x1="169.361" y1="43.8821" x2="172.735" y2="43.8821" gradientUnits="userSpaceOnUse">
<stop stop-color="#FF7032"/>
<stop offset="1" stop-color="#FF7032"/>
</linearGradient>
<linearGradient id="paint19_linear_1861_1058" x1="175.622" y1="43.8811" x2="178.497" y2="43.8811" gradientUnits="userSpaceOnUse">
<stop stop-color="#FF7032"/>
<stop offset="1" stop-color="#FF7032"/>
</linearGradient>
</defs>
</svg>
