<svg width="1380" height="34" viewBox="0 0 1380 34" fill="none" xmlns="http://www.w3.org/2000/svg">
<path d="M94 29.4722V4.52784H116.762V7.33408H96.8062V15.5796H112.847V18.4204H96.8062V26.6659H116.762V29.4722H94Z" fill="white"/>
<path d="M68 29.4722V4.52784H90.7617V7.33408H70.8062V15.5796H86.8468V18.4204H70.8062V26.6659H90.7617V29.4722H68Z" fill="white"/>
<path d="M36.1218 29.4722V4.52784H38.9627V15.5796H47.0003L56.2851 4.52784H59.8882V4.56248L49.4601 17L59.9228 29.4375V29.4722H56.2851L47.0003 18.4204H38.9627V29.4722H36.1218Z" fill="white"/>
<path d="M53 15.5796L62.2848 4.52784H65.8879V4.56248L55.4598 17L65.9225 29.4375V29.4722H62.2848L53 18.4204V15.5796Z" fill="#EF7743"/>
<path d="M29.0462 29.4722V4.52784H31.8871V29.4722H29.0462Z" fill="white"/>
<path d="M0 29.4722V4.52784H19.7129C20.4751 4.52784 21.168 4.71261 21.7916 5.08216C22.4383 5.4517 22.9465 5.95983 23.316 6.60653C23.6856 7.23014 23.8703 7.92304 23.8703 8.68523V13.9859C23.8703 14.3092 23.8241 14.6326 23.7318 14.956C23.6625 15.2562 23.5585 15.5449 23.4199 15.8221C23.9281 16.5843 24.3092 17.2425 24.5632 17.7968C24.8173 18.3512 24.9443 18.917 24.9443 19.4944V25.3148C24.9443 26.077 24.7596 26.7814 24.39 27.4281C24.0205 28.0517 23.5123 28.5483 22.8656 28.9178C22.242 29.2874 21.5491 29.4722 20.7869 29.4722H0ZM4.15739 26.6659H20.7869C21.1565 26.6659 21.4683 26.5389 21.7223 26.2848C21.9995 26.0077 22.1381 25.6843 22.1381 25.3148V19.4944C22.1381 19.1249 21.9995 18.8131 21.7223 18.559C21.4683 18.2819 21.1565 18.1433 20.7869 18.1433H4.15739C3.78784 18.1433 3.46449 18.2819 3.18733 18.559C2.93327 18.8131 2.80624 19.1249 2.80624 19.4944V25.3148C2.80624 25.6843 2.93327 26.0077 3.18733 26.2848C3.46449 26.5389 3.78784 26.6659 4.15739 26.6659ZM4.15739 15.337H19.7129C20.0825 15.337 20.3943 15.21 20.6484 14.956C20.9024 14.6788 21.0294 14.3554 21.0294 13.9859V8.68523C21.0294 8.31568 20.9024 8.00388 20.6484 7.74981C20.3943 7.47265 20.0825 7.33408 19.7129 7.33408H4.15739C3.78784 7.33408 3.46449 7.47265 3.18733 7.74981C2.93327 8.00388 2.80624 8.31568 2.80624 8.68523V13.9859C2.80624 14.3554 2.93327 14.6788 3.18733 14.956C3.46449 15.21 3.78784 15.337 4.15739 15.337Z" fill="white"/>
<path d="M362.346 24V10.59H363.786V16.62H370.986V10.59H372.426V24H370.986V17.97H363.786V24H362.346ZM379.888 24.216C378.976 24.216 378.148 24 377.404 23.568C376.66 23.124 376.066 22.524 375.622 21.768C375.19 21 374.974 20.13 374.974 19.158C374.974 18.198 375.19 17.34 375.622 16.584C376.054 15.828 376.636 15.234 377.368 14.802C378.112 14.358 378.952 14.136 379.888 14.136C380.824 14.136 381.658 14.352 382.39 14.784C383.134 15.216 383.716 15.81 384.136 16.566C384.568 17.322 384.784 18.186 384.784 19.158C384.784 20.142 384.562 21.018 384.118 21.786C383.674 22.542 383.08 23.136 382.336 23.568C381.604 24 380.788 24.216 379.888 24.216ZM379.888 22.866C380.536 22.866 381.118 22.704 381.634 22.38C382.162 22.056 382.576 21.612 382.876 21.048C383.188 20.484 383.344 19.854 383.344 19.158C383.344 18.462 383.188 17.838 382.876 17.286C382.576 16.734 382.162 16.296 381.634 15.972C381.118 15.648 380.536 15.486 379.888 15.486C379.24 15.486 378.652 15.648 378.124 15.972C377.608 16.296 377.194 16.734 376.882 17.286C376.57 17.838 376.414 18.462 376.414 19.158C376.414 19.854 376.57 20.484 376.882 21.048C377.194 21.612 377.608 22.056 378.124 22.38C378.652 22.704 379.24 22.866 379.888 22.866ZM387.133 24V14.352H388.483V16.188L388.267 15.918C388.531 15.354 388.921 14.916 389.437 14.604C389.965 14.292 390.541 14.136 391.165 14.136C391.909 14.136 392.581 14.346 393.181 14.766C393.781 15.186 394.207 15.732 394.459 16.404L394.081 16.422C394.321 15.678 394.735 15.114 395.323 14.73C395.923 14.334 396.583 14.136 397.303 14.136C397.951 14.136 398.545 14.292 399.085 14.604C399.637 14.916 400.075 15.348 400.399 15.9C400.735 16.44 400.903 17.052 400.903 17.736V24H399.553V18.258C399.553 17.67 399.445 17.172 399.229 16.764C399.025 16.356 398.743 16.044 398.383 15.828C398.023 15.6 397.609 15.486 397.141 15.486C396.685 15.486 396.271 15.6 395.899 15.828C395.527 16.044 395.233 16.362 395.017 16.782C394.801 17.19 394.693 17.682 394.693 18.258V24H393.343V18.258C393.343 17.67 393.235 17.172 393.019 16.764C392.815 16.356 392.533 16.044 392.173 15.828C391.813 15.6 391.399 15.486 390.931 15.486C390.463 15.486 390.043 15.6 389.671 15.828C389.311 16.044 389.023 16.362 388.807 16.782C388.591 17.19 388.483 17.682 388.483 18.258V24H387.133ZM407.841 24.216C406.941 24.216 406.125 24 405.393 23.568C404.673 23.124 404.103 22.518 403.683 21.75C403.263 20.982 403.053 20.112 403.053 19.14C403.053 18.168 403.257 17.31 403.665 16.566C404.073 15.81 404.625 15.216 405.321 14.784C406.029 14.352 406.821 14.136 407.697 14.136C408.393 14.136 409.011 14.268 409.551 14.532C410.103 14.784 410.571 15.132 410.955 15.576C411.339 16.008 411.633 16.5 411.837 17.052C412.041 17.592 412.143 18.15 412.143 18.726C412.143 18.846 412.137 18.984 412.125 19.14C412.113 19.284 412.095 19.434 412.071 19.59H403.917V18.33H411.297L410.649 18.87C410.757 18.21 410.679 17.622 410.415 17.106C410.163 16.578 409.797 16.164 409.317 15.864C408.837 15.552 408.297 15.396 407.697 15.396C407.097 15.396 406.539 15.552 406.023 15.864C405.519 16.176 405.123 16.614 404.835 17.178C404.547 17.73 404.433 18.39 404.493 19.158C404.433 19.926 404.553 20.598 404.853 21.174C405.165 21.738 405.585 22.176 406.113 22.488C406.653 22.8 407.229 22.956 407.841 22.956C408.549 22.956 409.143 22.788 409.623 22.452C410.103 22.116 410.493 21.696 410.793 21.192L411.945 21.804C411.753 22.236 411.459 22.638 411.063 23.01C410.667 23.37 410.193 23.664 409.641 23.892C409.101 24.108 408.501 24.216 407.841 24.216Z" fill="white"/>
<path d="M481.466 24.216C480.518 24.216 479.648 24.048 478.856 23.712C478.064 23.364 477.374 22.884 476.786 22.272C476.21 21.648 475.76 20.916 475.436 20.076C475.112 19.236 474.95 18.312 474.95 17.304C474.95 16.296 475.112 15.372 475.436 14.532C475.76 13.692 476.21 12.96 476.786 12.336C477.374 11.712 478.064 11.232 478.856 10.896C479.648 10.548 480.518 10.374 481.466 10.374C482.378 10.374 483.194 10.536 483.914 10.86C484.646 11.184 485.258 11.604 485.75 12.12C486.254 12.624 486.614 13.158 486.83 13.722L485.48 14.316C485.144 13.536 484.628 12.912 483.932 12.444C483.248 11.964 482.426 11.724 481.466 11.724C480.482 11.724 479.606 11.958 478.838 12.426C478.07 12.894 477.47 13.548 477.038 14.388C476.606 15.216 476.39 16.188 476.39 17.304C476.39 18.408 476.606 19.38 477.038 20.22C477.47 21.06 478.07 21.714 478.838 22.182C479.606 22.638 480.482 22.866 481.466 22.866C482.426 22.866 483.248 22.632 483.932 22.164C484.628 21.696 485.144 21.072 485.48 20.292L486.83 20.886C486.614 21.438 486.254 21.972 485.75 22.488C485.258 22.992 484.646 23.406 483.914 23.73C483.194 24.054 482.378 24.216 481.466 24.216ZM489.179 24V14.352H490.529V24H489.179ZM489.179 12.57V10.59H490.529V12.57H489.179ZM493.26 24V14.352H494.61V15.936L494.43 15.702C494.658 15.246 495 14.886 495.456 14.622C495.924 14.358 496.488 14.226 497.148 14.226H497.76V15.576H496.914C496.218 15.576 495.66 15.792 495.24 16.224C494.82 16.656 494.61 17.268 494.61 18.06V24H493.26ZM503.72 24.216C502.772 24.216 501.938 23.994 501.218 23.55C500.498 23.106 499.934 22.506 499.526 21.75C499.118 20.982 498.914 20.118 498.914 19.158C498.914 18.198 499.118 17.34 499.526 16.584C499.934 15.828 500.498 15.234 501.218 14.802C501.938 14.358 502.772 14.136 503.72 14.136C504.32 14.136 504.884 14.244 505.412 14.46C505.94 14.676 506.408 14.97 506.816 15.342C507.224 15.702 507.53 16.122 507.734 16.602L506.51 17.232C506.27 16.716 505.904 16.296 505.412 15.972C504.92 15.648 504.356 15.486 503.72 15.486C503.084 15.486 502.508 15.648 501.992 15.972C501.488 16.284 501.086 16.722 500.786 17.286C500.498 17.838 500.354 18.468 500.354 19.176C500.354 19.872 500.498 20.502 500.786 21.066C501.086 21.618 501.488 22.056 501.992 22.38C502.508 22.704 503.084 22.866 503.72 22.866C504.356 22.866 504.914 22.704 505.394 22.38C505.886 22.056 506.258 21.624 506.51 21.084L507.734 21.75C507.53 22.218 507.224 22.638 506.816 23.01C506.408 23.382 505.94 23.676 505.412 23.892C504.884 24.108 504.32 24.216 503.72 24.216ZM513.492 24.216C512.82 24.216 512.208 24.06 511.656 23.748C511.104 23.424 510.666 22.98 510.342 22.416C510.03 21.84 509.874 21.18 509.874 20.436V14.352H511.224V20.274C511.224 20.79 511.326 21.246 511.53 21.642C511.746 22.026 512.04 22.326 512.412 22.542C512.796 22.758 513.234 22.866 513.726 22.866C514.218 22.866 514.656 22.758 515.04 22.542C515.424 22.314 515.724 21.996 515.94 21.588C516.156 21.168 516.264 20.67 516.264 20.094V14.352H517.614V24H516.264V22.128L516.57 22.2C516.342 22.824 515.952 23.316 515.4 23.676C514.848 24.036 514.212 24.216 513.492 24.216ZM520.358 24V14.352H521.708V24H520.358ZM520.358 12.57V10.59H521.708V12.57H520.358ZM528.13 24.108C527.266 24.108 526.6 23.856 526.132 23.352C525.664 22.848 525.43 22.128 525.43 21.192V15.702H523.648V14.352H524.098C524.506 14.352 524.83 14.22 525.07 13.956C525.31 13.68 525.43 13.338 525.43 12.93V12.12H526.78V14.352H528.904V15.702H526.78V21.192C526.78 21.516 526.828 21.804 526.924 22.056C527.02 22.296 527.182 22.488 527.41 22.632C527.65 22.776 527.968 22.848 528.364 22.848C528.46 22.848 528.574 22.842 528.706 22.83C528.838 22.818 528.952 22.806 529.048 22.794V24C528.904 24.036 528.742 24.06 528.562 24.072C528.382 24.096 528.238 24.108 528.13 24.108ZM535.553 24.216C534.641 24.216 533.813 24 533.069 23.568C532.325 23.124 531.731 22.524 531.287 21.768C530.855 21 530.639 20.13 530.639 19.158C530.639 18.198 530.855 17.34 531.287 16.584C531.719 15.828 532.301 15.234 533.033 14.802C533.777 14.358 534.617 14.136 535.553 14.136C536.489 14.136 537.323 14.352 538.055 14.784C538.799 15.216 539.381 15.81 539.801 16.566C540.233 17.322 540.449 18.186 540.449 19.158C540.449 20.142 540.227 21.018 539.783 21.786C539.339 22.542 538.745 23.136 538.001 23.568C537.269 24 536.453 24.216 535.553 24.216ZM535.553 22.866C536.201 22.866 536.783 22.704 537.299 22.38C537.827 22.056 538.241 21.612 538.541 21.048C538.853 20.484 539.009 19.854 539.009 19.158C539.009 18.462 538.853 17.838 538.541 17.286C538.241 16.734 537.827 16.296 537.299 15.972C536.783 15.648 536.201 15.486 535.553 15.486C534.905 15.486 534.317 15.648 533.789 15.972C533.273 16.296 532.859 16.734 532.547 17.286C532.235 17.838 532.079 18.462 532.079 19.158C532.079 19.854 532.235 20.484 532.547 21.048C532.859 21.612 533.273 22.056 533.789 22.38C534.317 22.704 534.905 22.866 535.553 22.866Z" fill="white"/>
<path d="M603.346 24V10.59H607.954C608.83 10.59 609.598 10.764 610.258 11.112C610.918 11.448 611.428 11.928 611.788 12.552C612.16 13.164 612.346 13.878 612.346 14.694C612.346 15.51 612.16 16.224 611.788 16.836C611.428 17.448 610.918 17.928 610.258 18.276C609.61 18.612 608.842 18.78 607.954 18.78H604.786V24H603.346ZM604.786 17.43H608.026C608.602 17.43 609.106 17.322 609.538 17.106C609.97 16.878 610.306 16.56 610.546 16.152C610.786 15.732 610.906 15.24 610.906 14.676C610.906 14.112 610.786 13.626 610.546 13.218C610.306 12.81 609.97 12.498 609.538 12.282C609.106 12.054 608.602 11.94 608.026 11.94H604.786V17.43ZM614.682 24V14.352H616.032V15.936L615.852 15.702C616.08 15.246 616.422 14.886 616.878 14.622C617.346 14.358 617.91 14.226 618.57 14.226H619.182V15.576H618.336C617.64 15.576 617.082 15.792 616.662 16.224C616.242 16.656 616.032 17.268 616.032 18.06V24H614.682ZM625.125 24.216C624.225 24.216 623.409 24 622.677 23.568C621.957 23.124 621.387 22.518 620.967 21.75C620.547 20.982 620.337 20.112 620.337 19.14C620.337 18.168 620.541 17.31 620.949 16.566C621.357 15.81 621.909 15.216 622.605 14.784C623.313 14.352 624.105 14.136 624.981 14.136C625.677 14.136 626.295 14.268 626.835 14.532C627.387 14.784 627.855 15.132 628.239 15.576C628.623 16.008 628.917 16.5 629.121 17.052C629.325 17.592 629.427 18.15 629.427 18.726C629.427 18.846 629.421 18.984 629.409 19.14C629.397 19.284 629.379 19.434 629.355 19.59H621.201V18.33H628.581L627.933 18.87C628.041 18.21 627.963 17.622 627.699 17.106C627.447 16.578 627.081 16.164 626.601 15.864C626.121 15.552 625.581 15.396 624.981 15.396C624.381 15.396 623.823 15.552 623.307 15.864C622.803 16.176 622.407 16.614 622.119 17.178C621.831 17.73 621.717 18.39 621.777 19.158C621.717 19.926 621.837 20.598 622.137 21.174C622.449 21.738 622.869 22.176 623.397 22.488C623.937 22.8 624.513 22.956 625.125 22.956C625.833 22.956 626.427 22.788 626.907 22.452C627.387 22.116 627.777 21.696 628.077 21.192L629.229 21.804C629.037 22.236 628.743 22.638 628.347 23.01C627.951 23.37 627.477 23.664 626.925 23.892C626.385 24.108 625.785 24.216 625.125 24.216ZM631.775 24V14.352H633.125V16.188L632.909 15.918C633.173 15.354 633.563 14.916 634.079 14.604C634.607 14.292 635.183 14.136 635.807 14.136C636.551 14.136 637.223 14.346 637.823 14.766C638.423 15.186 638.849 15.732 639.101 16.404L638.723 16.422C638.963 15.678 639.377 15.114 639.965 14.73C640.565 14.334 641.225 14.136 641.945 14.136C642.593 14.136 643.187 14.292 643.727 14.604C644.279 14.916 644.717 15.348 645.041 15.9C645.377 16.44 645.545 17.052 645.545 17.736V24H644.195V18.258C644.195 17.67 644.087 17.172 643.871 16.764C643.667 16.356 643.385 16.044 643.025 15.828C642.665 15.6 642.251 15.486 641.783 15.486C641.327 15.486 640.913 15.6 640.541 15.828C640.169 16.044 639.875 16.362 639.659 16.782C639.443 17.19 639.335 17.682 639.335 18.258V24H637.985V18.258C637.985 17.67 637.877 17.172 637.661 16.764C637.457 16.356 637.175 16.044 636.815 15.828C636.455 15.6 636.041 15.486 635.573 15.486C635.105 15.486 634.685 15.6 634.313 15.828C633.953 16.044 633.665 16.362 633.449 16.782C633.233 17.19 633.125 17.682 633.125 18.258V24H631.775ZM648.091 24V14.352H649.441V24H648.091ZM648.091 12.57V10.59H649.441V12.57H648.091ZM654.963 24.216C654.351 24.216 653.805 24.102 653.325 23.874C652.845 23.634 652.467 23.31 652.191 22.902C651.915 22.494 651.777 22.026 651.777 21.498C651.777 20.994 651.885 20.538 652.101 20.13C652.317 19.71 652.653 19.356 653.109 19.068C653.565 18.78 654.147 18.576 654.855 18.456L658.635 17.826V19.05L655.179 19.626C654.483 19.746 653.979 19.968 653.667 20.292C653.367 20.616 653.217 21 653.217 21.444C653.217 21.876 653.385 22.242 653.721 22.542C654.069 22.842 654.513 22.992 655.053 22.992C655.713 22.992 656.289 22.854 656.781 22.578C657.273 22.29 657.657 21.906 657.933 21.426C658.209 20.946 658.347 20.412 658.347 19.824V17.376C658.347 16.8 658.137 16.332 657.717 15.972C657.297 15.612 656.751 15.432 656.079 15.432C655.491 15.432 654.975 15.582 654.531 15.882C654.087 16.17 653.757 16.548 653.541 17.016L652.317 16.35C652.497 15.942 652.779 15.57 653.163 15.234C653.559 14.898 654.009 14.634 654.513 14.442C655.017 14.238 655.539 14.136 656.079 14.136C656.787 14.136 657.411 14.274 657.951 14.55C658.503 14.826 658.929 15.21 659.229 15.702C659.541 16.182 659.697 16.74 659.697 17.376V24H658.347V22.074L658.545 22.272C658.377 22.632 658.113 22.962 657.753 23.262C657.405 23.55 656.991 23.784 656.511 23.964C656.043 24.132 655.527 24.216 654.963 24.216ZM666.852 24.216C665.904 24.216 665.07 23.994 664.35 23.55C663.63 23.106 663.066 22.506 662.658 21.75C662.25 20.982 662.046 20.118 662.046 19.158C662.046 18.198 662.25 17.34 662.658 16.584C663.066 15.828 663.63 15.234 664.35 14.802C665.07 14.358 665.904 14.136 666.852 14.136C667.452 14.136 668.016 14.244 668.544 14.46C669.072 14.676 669.54 14.97 669.948 15.342C670.356 15.702 670.662 16.122 670.866 16.602L669.642 17.232C669.402 16.716 669.036 16.296 668.544 15.972C668.052 15.648 667.488 15.486 666.852 15.486C666.216 15.486 665.64 15.648 665.124 15.972C664.62 16.284 664.218 16.722 663.918 17.286C663.63 17.838 663.486 18.468 663.486 19.176C663.486 19.872 663.63 20.502 663.918 21.066C664.218 21.618 664.62 22.056 665.124 22.38C665.64 22.704 666.216 22.866 666.852 22.866C667.488 22.866 668.046 22.704 668.526 22.38C669.018 22.056 669.39 21.624 669.642 21.084L670.866 21.75C670.662 22.218 670.356 22.638 669.948 23.01C669.54 23.382 669.072 23.676 668.544 23.892C668.016 24.108 667.452 24.216 666.852 24.216ZM667.068 28.14C666.72 28.14 666.372 28.08 666.024 27.96C665.688 27.84 665.412 27.678 665.196 27.474L665.574 26.52C665.754 26.688 665.958 26.82 666.186 26.916C666.426 27.012 666.66 27.06 666.888 27.06C667.152 27.06 667.362 26.988 667.518 26.844C667.686 26.712 667.77 26.538 667.77 26.322C667.77 26.046 667.632 25.83 667.356 25.674C667.08 25.518 666.63 25.404 666.006 25.332L666.438 23.82H667.41L667.176 24.684C667.8 24.816 668.268 25.026 668.58 25.314C668.904 25.614 669.066 25.98 669.066 26.412C669.066 26.916 668.874 27.33 668.49 27.654C668.118 27.978 667.644 28.14 667.068 28.14ZM675.817 24.216C675.205 24.216 674.659 24.102 674.179 23.874C673.699 23.634 673.321 23.31 673.045 22.902C672.769 22.494 672.631 22.026 672.631 21.498C672.631 20.994 672.739 20.538 672.955 20.13C673.171 19.71 673.507 19.356 673.963 19.068C674.419 18.78 675.001 18.576 675.709 18.456L679.489 17.826V19.05L676.033 19.626C675.337 19.746 674.833 19.968 674.521 20.292C674.221 20.616 674.071 21 674.071 21.444C674.071 21.876 674.239 22.242 674.575 22.542C674.923 22.842 675.367 22.992 675.907 22.992C676.567 22.992 677.143 22.854 677.635 22.578C678.127 22.29 678.511 21.906 678.787 21.426C679.063 20.946 679.201 20.412 679.201 19.824V17.376C679.201 16.8 678.991 16.332 678.571 15.972C678.151 15.612 677.605 15.432 676.933 15.432C676.345 15.432 675.829 15.582 675.385 15.882C674.941 16.17 674.611 16.548 674.395 17.016L673.171 16.35C673.351 15.942 673.633 15.57 674.017 15.234C674.413 14.898 674.863 14.634 675.367 14.442C675.871 14.238 676.393 14.136 676.933 14.136C677.641 14.136 678.265 14.274 678.805 14.55C679.357 14.826 679.783 15.21 680.083 15.702C680.395 16.182 680.551 16.74 680.551 17.376V24H679.201V22.074L679.399 22.272C679.231 22.632 678.967 22.962 678.607 23.262C678.259 23.55 677.845 23.784 677.365 23.964C676.897 24.132 676.381 24.216 675.817 24.216ZM677.995 12.48C677.683 12.48 677.431 12.426 677.239 12.318C677.047 12.198 676.885 12.066 676.753 11.922C676.621 11.766 676.483 11.634 676.339 11.526C676.207 11.406 676.039 11.346 675.835 11.346C675.643 11.346 675.487 11.424 675.367 11.58C675.247 11.736 675.187 12.012 675.187 12.408H674.071C674.071 11.688 674.227 11.142 674.539 10.77C674.863 10.386 675.295 10.194 675.835 10.194C676.147 10.194 676.399 10.254 676.591 10.374C676.783 10.482 676.945 10.614 677.077 10.77C677.209 10.914 677.341 11.046 677.473 11.166C677.617 11.274 677.791 11.328 677.995 11.328C678.211 11.328 678.379 11.238 678.499 11.058C678.631 10.866 678.697 10.602 678.697 10.266H679.795C679.795 10.926 679.633 11.46 679.309 11.868C678.985 12.276 678.547 12.48 677.995 12.48ZM687.814 24.216C686.902 24.216 686.074 24 685.33 23.568C684.586 23.124 683.992 22.524 683.548 21.768C683.116 21 682.9 20.13 682.9 19.158C682.9 18.198 683.116 17.34 683.548 16.584C683.98 15.828 684.562 15.234 685.294 14.802C686.038 14.358 686.878 14.136 687.814 14.136C688.75 14.136 689.584 14.352 690.316 14.784C691.06 15.216 691.642 15.81 692.062 16.566C692.494 17.322 692.71 18.186 692.71 19.158C692.71 20.142 692.488 21.018 692.044 21.786C691.6 22.542 691.006 23.136 690.262 23.568C689.53 24 688.714 24.216 687.814 24.216ZM687.814 22.866C688.462 22.866 689.044 22.704 689.56 22.38C690.088 22.056 690.502 21.612 690.802 21.048C691.114 20.484 691.27 19.854 691.27 19.158C691.27 18.462 691.114 17.838 690.802 17.286C690.502 16.734 690.088 16.296 689.56 15.972C689.044 15.648 688.462 15.486 687.814 15.486C687.166 15.486 686.578 15.648 686.05 15.972C685.534 16.296 685.12 16.734 684.808 17.286C684.496 17.838 684.34 18.462 684.34 19.158C684.34 19.854 684.496 20.484 684.808 21.048C685.12 21.612 685.534 22.056 686.05 22.38C686.578 22.704 687.166 22.866 687.814 22.866Z" fill="white"/>
<path d="M755.346 24V10.59H759.954C760.83 10.59 761.598 10.764 762.258 11.112C762.918 11.448 763.428 11.928 763.788 12.552C764.16 13.164 764.346 13.878 764.346 14.694C764.346 15.51 764.16 16.224 763.788 16.836C763.428 17.448 762.918 17.928 762.258 18.276C761.61 18.612 760.842 18.78 759.954 18.78H756.786V24H755.346ZM756.786 17.43H760.026C760.602 17.43 761.106 17.322 761.538 17.106C761.97 16.878 762.306 16.56 762.546 16.152C762.786 15.732 762.906 15.24 762.906 14.676C762.906 14.112 762.786 13.626 762.546 13.218C762.306 12.81 761.97 12.498 761.538 12.282C761.106 12.054 760.602 11.94 760.026 11.94H756.786V17.43ZM768.752 24.216C768.14 24.216 767.594 24.102 767.114 23.874C766.634 23.634 766.256 23.31 765.98 22.902C765.704 22.494 765.566 22.026 765.566 21.498C765.566 20.994 765.674 20.538 765.89 20.13C766.106 19.71 766.442 19.356 766.898 19.068C767.354 18.78 767.936 18.576 768.644 18.456L772.424 17.826V19.05L768.968 19.626C768.272 19.746 767.768 19.968 767.456 20.292C767.156 20.616 767.006 21 767.006 21.444C767.006 21.876 767.174 22.242 767.51 22.542C767.858 22.842 768.302 22.992 768.842 22.992C769.502 22.992 770.078 22.854 770.57 22.578C771.062 22.29 771.446 21.906 771.722 21.426C771.998 20.946 772.136 20.412 772.136 19.824V17.376C772.136 16.8 771.926 16.332 771.506 15.972C771.086 15.612 770.54 15.432 769.868 15.432C769.28 15.432 768.764 15.582 768.32 15.882C767.876 16.17 767.546 16.548 767.33 17.016L766.106 16.35C766.286 15.942 766.568 15.57 766.952 15.234C767.348 14.898 767.798 14.634 768.302 14.442C768.806 14.238 769.328 14.136 769.868 14.136C770.576 14.136 771.2 14.274 771.74 14.55C772.292 14.826 772.718 15.21 773.018 15.702C773.33 16.182 773.486 16.74 773.486 17.376V24H772.136V22.074L772.334 22.272C772.166 22.632 771.902 22.962 771.542 23.262C771.194 23.55 770.78 23.784 770.3 23.964C769.832 24.132 769.316 24.216 768.752 24.216ZM779.745 24.108C778.881 24.108 778.215 23.856 777.747 23.352C777.279 22.848 777.045 22.128 777.045 21.192V15.702H775.263V14.352H775.713C776.121 14.352 776.445 14.22 776.685 13.956C776.925 13.68 777.045 13.338 777.045 12.93V12.12H778.395V14.352H780.519V15.702H778.395V21.192C778.395 21.516 778.443 21.804 778.539 22.056C778.635 22.296 778.797 22.488 779.025 22.632C779.265 22.776 779.583 22.848 779.979 22.848C780.075 22.848 780.189 22.842 780.321 22.83C780.453 22.818 780.567 22.806 780.663 22.794V24C780.519 24.036 780.357 24.06 780.177 24.072C779.997 24.096 779.853 24.108 779.745 24.108ZM783.002 24V14.352H784.352V15.936L784.172 15.702C784.4 15.246 784.742 14.886 785.198 14.622C785.666 14.358 786.23 14.226 786.89 14.226H787.502V15.576H786.656C785.96 15.576 785.402 15.792 784.982 16.224C784.562 16.656 784.352 17.268 784.352 18.06V24H783.002ZM793.57 24.216C792.658 24.216 791.83 24 791.086 23.568C790.342 23.124 789.748 22.524 789.304 21.768C788.872 21 788.656 20.13 788.656 19.158C788.656 18.198 788.872 17.34 789.304 16.584C789.736 15.828 790.318 15.234 791.05 14.802C791.794 14.358 792.634 14.136 793.57 14.136C794.506 14.136 795.34 14.352 796.072 14.784C796.816 15.216 797.398 15.81 797.818 16.566C798.25 17.322 798.466 18.186 798.466 19.158C798.466 20.142 798.244 21.018 797.8 21.786C797.356 22.542 796.762 23.136 796.018 23.568C795.286 24 794.47 24.216 793.57 24.216ZM793.57 22.866C794.218 22.866 794.8 22.704 795.316 22.38C795.844 22.056 796.258 21.612 796.558 21.048C796.87 20.484 797.026 19.854 797.026 19.158C797.026 18.462 796.87 17.838 796.558 17.286C796.258 16.734 795.844 16.296 795.316 15.972C794.8 15.648 794.218 15.486 793.57 15.486C792.922 15.486 792.334 15.648 791.806 15.972C791.29 16.296 790.876 16.734 790.564 17.286C790.252 17.838 790.096 18.462 790.096 19.158C790.096 19.854 790.252 20.484 790.564 21.048C790.876 21.612 791.29 22.056 791.806 22.38C792.334 22.704 792.922 22.866 793.57 22.866ZM805.225 24.216C804.277 24.216 803.443 23.994 802.723 23.55C802.003 23.106 801.439 22.506 801.031 21.75C800.623 20.982 800.419 20.118 800.419 19.158C800.419 18.198 800.623 17.34 801.031 16.584C801.439 15.828 802.003 15.234 802.723 14.802C803.443 14.358 804.277 14.136 805.225 14.136C805.825 14.136 806.389 14.244 806.917 14.46C807.445 14.676 807.913 14.97 808.321 15.342C808.729 15.702 809.035 16.122 809.239 16.602L808.015 17.232C807.775 16.716 807.409 16.296 806.917 15.972C806.425 15.648 805.861 15.486 805.225 15.486C804.589 15.486 804.013 15.648 803.497 15.972C802.993 16.284 802.591 16.722 802.291 17.286C802.003 17.838 801.859 18.468 801.859 19.176C801.859 19.872 802.003 20.502 802.291 21.066C802.591 21.618 802.993 22.056 803.497 22.38C804.013 22.704 804.589 22.866 805.225 22.866C805.861 22.866 806.419 22.704 806.899 22.38C807.391 22.056 807.763 21.624 808.015 21.084L809.239 21.75C809.035 22.218 808.729 22.638 808.321 23.01C807.913 23.382 807.445 23.676 806.917 23.892C806.389 24.108 805.825 24.216 805.225 24.216ZM811.577 24V14.352H812.927V24H811.577ZM811.577 12.57V10.59H812.927V12.57H811.577ZM815.658 24V14.352H817.008V16.224L816.702 16.152C816.942 15.528 817.332 15.036 817.872 14.676C818.424 14.316 819.06 14.136 819.78 14.136C820.464 14.136 821.076 14.292 821.616 14.604C822.168 14.916 822.6 15.348 822.912 15.9C823.236 16.44 823.398 17.052 823.398 17.736V24H822.048V18.258C822.048 17.67 821.94 17.172 821.724 16.764C821.52 16.356 821.226 16.044 820.842 15.828C820.47 15.6 820.038 15.486 819.546 15.486C819.054 15.486 818.616 15.6 818.232 15.828C817.848 16.044 817.548 16.362 817.332 16.782C817.116 17.19 817.008 17.682 817.008 18.258V24H815.658ZM828.735 24.216C828.123 24.216 827.577 24.102 827.097 23.874C826.617 23.634 826.239 23.31 825.963 22.902C825.687 22.494 825.549 22.026 825.549 21.498C825.549 20.994 825.657 20.538 825.873 20.13C826.089 19.71 826.425 19.356 826.881 19.068C827.337 18.78 827.919 18.576 828.627 18.456L832.407 17.826V19.05L828.951 19.626C828.255 19.746 827.751 19.968 827.439 20.292C827.139 20.616 826.989 21 826.989 21.444C826.989 21.876 827.157 22.242 827.493 22.542C827.841 22.842 828.285 22.992 828.825 22.992C829.485 22.992 830.061 22.854 830.553 22.578C831.045 22.29 831.429 21.906 831.705 21.426C831.981 20.946 832.119 20.412 832.119 19.824V17.376C832.119 16.8 831.909 16.332 831.489 15.972C831.069 15.612 830.523 15.432 829.851 15.432C829.263 15.432 828.747 15.582 828.303 15.882C827.859 16.17 827.529 16.548 827.313 17.016L826.089 16.35C826.269 15.942 826.551 15.57 826.935 15.234C827.331 14.898 827.781 14.634 828.285 14.442C828.789 14.238 829.311 14.136 829.851 14.136C830.559 14.136 831.183 14.274 831.723 14.55C832.275 14.826 832.701 15.21 833.001 15.702C833.313 16.182 833.469 16.74 833.469 17.376V24H832.119V22.074L832.317 22.272C832.149 22.632 831.885 22.962 831.525 23.262C831.177 23.55 830.763 23.784 830.283 23.964C829.815 24.132 829.299 24.216 828.735 24.216ZM840.57 24.216C839.67 24.216 838.86 24 838.14 23.568C837.42 23.124 836.85 22.524 836.43 21.768C836.022 21 835.818 20.136 835.818 19.176C835.818 18.204 836.022 17.34 836.43 16.584C836.85 15.828 837.414 15.234 838.122 14.802C838.842 14.358 839.658 14.136 840.57 14.136C841.398 14.136 842.136 14.316 842.784 14.676C843.432 15.036 843.942 15.522 844.314 16.134L844.098 16.512V10.374H845.448V24H844.098V21.84L844.314 22.038C843.978 22.734 843.474 23.274 842.802 23.658C842.142 24.03 841.398 24.216 840.57 24.216ZM840.642 22.866C841.29 22.866 841.872 22.704 842.388 22.38C842.916 22.056 843.33 21.618 843.63 21.066C843.942 20.502 844.098 19.872 844.098 19.176C844.098 18.48 843.942 17.856 843.63 17.304C843.33 16.74 842.916 16.296 842.388 15.972C841.872 15.648 841.29 15.486 840.642 15.486C840.006 15.486 839.43 15.648 838.914 15.972C838.398 16.296 837.99 16.734 837.69 17.286C837.402 17.838 837.258 18.468 837.258 19.176C837.258 19.872 837.402 20.502 837.69 21.066C837.99 21.618 838.392 22.056 838.896 22.38C839.412 22.704 839.994 22.866 840.642 22.866ZM852.706 24.216C851.794 24.216 850.966 24 850.222 23.568C849.478 23.124 848.884 22.524 848.44 21.768C848.008 21 847.792 20.13 847.792 19.158C847.792 18.198 848.008 17.34 848.44 16.584C848.872 15.828 849.454 15.234 850.186 14.802C850.93 14.358 851.77 14.136 852.706 14.136C853.642 14.136 854.476 14.352 855.208 14.784C855.952 15.216 856.534 15.81 856.954 16.566C857.386 17.322 857.602 18.186 857.602 19.158C857.602 20.142 857.38 21.018 856.936 21.786C856.492 22.542 855.898 23.136 855.154 23.568C854.422 24 853.606 24.216 852.706 24.216ZM852.706 22.866C853.354 22.866 853.936 22.704 854.452 22.38C854.98 22.056 855.394 21.612 855.694 21.048C856.006 20.484 856.162 19.854 856.162 19.158C856.162 18.462 856.006 17.838 855.694 17.286C855.394 16.734 854.98 16.296 854.452 15.972C853.936 15.648 853.354 15.486 852.706 15.486C852.058 15.486 851.47 15.648 850.942 15.972C850.426 16.296 850.012 16.734 849.7 17.286C849.388 17.838 849.232 18.462 849.232 19.158C849.232 19.854 849.388 20.484 849.7 21.048C850.012 21.612 850.426 22.056 850.942 22.38C851.47 22.704 852.058 22.866 852.706 22.866ZM859.951 24V14.352H861.301V15.936L861.121 15.702C861.349 15.246 861.691 14.886 862.147 14.622C862.615 14.358 863.179 14.226 863.839 14.226H864.451V15.576H863.605C862.909 15.576 862.351 15.792 861.931 16.224C861.511 16.656 861.301 17.268 861.301 18.06V24H859.951ZM870.394 24.216C869.494 24.216 868.678 24 867.946 23.568C867.226 23.124 866.656 22.518 866.236 21.75C865.816 20.982 865.606 20.112 865.606 19.14C865.606 18.168 865.81 17.31 866.218 16.566C866.626 15.81 867.178 15.216 867.874 14.784C868.582 14.352 869.374 14.136 870.25 14.136C870.946 14.136 871.564 14.268 872.104 14.532C872.656 14.784 873.124 15.132 873.508 15.576C873.892 16.008 874.186 16.5 874.39 17.052C874.594 17.592 874.696 18.15 874.696 18.726C874.696 18.846 874.69 18.984 874.678 19.14C874.666 19.284 874.648 19.434 874.624 19.59H866.47V18.33H873.85L873.202 18.87C873.31 18.21 873.232 17.622 872.968 17.106C872.716 16.578 872.35 16.164 871.87 15.864C871.39 15.552 870.85 15.396 870.25 15.396C869.65 15.396 869.092 15.552 868.576 15.864C868.072 16.176 867.676 16.614 867.388 17.178C867.1 17.73 866.986 18.39 867.046 19.158C866.986 19.926 867.106 20.598 867.406 21.174C867.718 21.738 868.138 22.176 868.666 22.488C869.206 22.8 869.782 22.956 870.394 22.956C871.102 22.956 871.696 22.788 872.176 22.452C872.656 22.116 873.046 21.696 873.346 21.192L874.498 21.804C874.306 22.236 874.012 22.638 873.616 23.01C873.22 23.37 872.746 23.664 872.194 23.892C871.654 24.108 871.054 24.216 870.394 24.216ZM880.392 24.216C879.468 24.216 878.658 23.982 877.962 23.514C877.266 23.046 876.762 22.41 876.45 21.606L877.584 21.066C877.86 21.654 878.244 22.122 878.736 22.47C879.24 22.818 879.792 22.992 880.392 22.992C880.968 22.992 881.454 22.854 881.85 22.578C882.246 22.29 882.444 21.918 882.444 21.462C882.444 21.126 882.348 20.862 882.156 20.67C881.964 20.466 881.742 20.31 881.49 20.202C881.238 20.094 881.016 20.016 880.824 19.968L879.438 19.572C878.55 19.32 877.908 18.966 877.512 18.51C877.116 18.054 876.918 17.526 876.918 16.926C876.918 16.362 877.062 15.87 877.35 15.45C877.638 15.03 878.028 14.706 878.52 14.478C879.012 14.25 879.558 14.136 880.158 14.136C880.974 14.136 881.712 14.352 882.372 14.784C883.044 15.204 883.518 15.792 883.794 16.548L882.642 17.088C882.402 16.548 882.054 16.128 881.598 15.828C881.154 15.516 880.656 15.36 880.104 15.36C879.564 15.36 879.132 15.498 878.808 15.774C878.484 16.05 878.322 16.398 878.322 16.818C878.322 17.142 878.406 17.4 878.574 17.592C878.742 17.784 878.934 17.928 879.15 18.024C879.378 18.12 879.576 18.192 879.744 18.24L881.346 18.708C882.126 18.936 882.732 19.29 883.164 19.77C883.608 20.25 883.83 20.814 883.83 21.462C883.83 21.99 883.68 22.464 883.38 22.884C883.092 23.304 882.69 23.634 882.174 23.874C881.658 24.102 881.064 24.216 880.392 24.216Z" fill="white"/>
<path d="M953.466 24.216C952.518 24.216 951.648 24.048 950.856 23.712C950.064 23.364 949.374 22.884 948.786 22.272C948.21 21.648 947.76 20.916 947.436 20.076C947.112 19.236 946.95 18.312 946.95 17.304C946.95 16.296 947.112 15.372 947.436 14.532C947.76 13.692 948.21 12.96 948.786 12.336C949.374 11.712 950.064 11.232 950.856 10.896C951.648 10.548 952.518 10.374 953.466 10.374C954.378 10.374 955.194 10.536 955.914 10.86C956.646 11.184 957.258 11.604 957.75 12.12C958.254 12.624 958.614 13.158 958.83 13.722L957.48 14.316C957.144 13.536 956.628 12.912 955.932 12.444C955.248 11.964 954.426 11.724 953.466 11.724C952.482 11.724 951.606 11.958 950.838 12.426C950.07 12.894 949.47 13.548 949.038 14.388C948.606 15.216 948.39 16.188 948.39 17.304C948.39 18.408 948.606 19.38 949.038 20.22C949.47 21.06 950.07 21.714 950.838 22.182C951.606 22.638 952.482 22.866 953.466 22.866C954.426 22.866 955.248 22.632 955.932 22.164C956.628 21.696 957.144 21.072 957.48 20.292L958.83 20.886C958.614 21.438 958.254 21.972 957.75 22.488C957.258 22.992 956.646 23.406 955.914 23.73C955.194 24.054 954.378 24.216 953.466 24.216ZM965.521 24.216C964.609 24.216 963.781 24 963.037 23.568C962.293 23.124 961.699 22.524 961.255 21.768C960.823 21 960.607 20.13 960.607 19.158C960.607 18.198 960.823 17.34 961.255 16.584C961.687 15.828 962.269 15.234 963.001 14.802C963.745 14.358 964.585 14.136 965.521 14.136C966.457 14.136 967.291 14.352 968.023 14.784C968.767 15.216 969.349 15.81 969.769 16.566C970.201 17.322 970.417 18.186 970.417 19.158C970.417 20.142 970.195 21.018 969.751 21.786C969.307 22.542 968.713 23.136 967.969 23.568C967.237 24 966.421 24.216 965.521 24.216ZM965.521 22.866C966.169 22.866 966.751 22.704 967.267 22.38C967.795 22.056 968.209 21.612 968.509 21.048C968.821 20.484 968.977 19.854 968.977 19.158C968.977 18.462 968.821 17.838 968.509 17.286C968.209 16.734 967.795 16.296 967.267 15.972C966.751 15.648 966.169 15.486 965.521 15.486C964.873 15.486 964.285 15.648 963.757 15.972C963.241 16.296 962.827 16.734 962.515 17.286C962.203 17.838 962.047 18.462 962.047 19.158C962.047 19.854 962.203 20.484 962.515 21.048C962.827 21.612 963.241 22.056 963.757 22.38C964.285 22.704 964.873 22.866 965.521 22.866ZM972.766 24V14.352H974.116V16.224L973.81 16.152C974.05 15.528 974.44 15.036 974.98 14.676C975.532 14.316 976.168 14.136 976.888 14.136C977.572 14.136 978.184 14.292 978.724 14.604C979.276 14.916 979.708 15.348 980.02 15.9C980.344 16.44 980.506 17.052 980.506 17.736V24H979.156V18.258C979.156 17.67 979.048 17.172 978.832 16.764C978.628 16.356 978.334 16.044 977.95 15.828C977.578 15.6 977.146 15.486 976.654 15.486C976.162 15.486 975.724 15.6 975.34 15.828C974.956 16.044 974.656 16.362 974.44 16.782C974.224 17.19 974.116 17.682 974.116 18.258V24H972.766ZM986.743 24.108C985.879 24.108 985.213 23.856 984.745 23.352C984.277 22.848 984.043 22.128 984.043 21.192V15.702H982.261V14.352H982.711C983.119 14.352 983.443 14.22 983.683 13.956C983.923 13.68 984.043 13.338 984.043 12.93V12.12H985.393V14.352H987.517V15.702H985.393V21.192C985.393 21.516 985.441 21.804 985.537 22.056C985.633 22.296 985.795 22.488 986.023 22.632C986.263 22.776 986.581 22.848 986.977 22.848C987.073 22.848 987.187 22.842 987.319 22.83C987.451 22.818 987.565 22.806 987.661 22.794V24C987.517 24.036 987.355 24.06 987.175 24.072C986.995 24.096 986.851 24.108 986.743 24.108ZM992.614 24.216C992.002 24.216 991.456 24.102 990.976 23.874C990.496 23.634 990.118 23.31 989.842 22.902C989.566 22.494 989.428 22.026 989.428 21.498C989.428 20.994 989.536 20.538 989.752 20.13C989.968 19.71 990.304 19.356 990.76 19.068C991.216 18.78 991.798 18.576 992.506 18.456L996.286 17.826V19.05L992.83 19.626C992.134 19.746 991.63 19.968 991.318 20.292C991.018 20.616 990.868 21 990.868 21.444C990.868 21.876 991.036 22.242 991.372 22.542C991.72 22.842 992.164 22.992 992.704 22.992C993.364 22.992 993.94 22.854 994.432 22.578C994.924 22.29 995.308 21.906 995.584 21.426C995.86 20.946 995.998 20.412 995.998 19.824V17.376C995.998 16.8 995.788 16.332 995.368 15.972C994.948 15.612 994.402 15.432 993.73 15.432C993.142 15.432 992.626 15.582 992.182 15.882C991.738 16.17 991.408 16.548 991.192 17.016L989.968 16.35C990.148 15.942 990.43 15.57 990.814 15.234C991.21 14.898 991.66 14.634 992.164 14.442C992.668 14.238 993.19 14.136 993.73 14.136C994.438 14.136 995.062 14.274 995.602 14.55C996.154 14.826 996.58 15.21 996.88 15.702C997.192 16.182 997.348 16.74 997.348 17.376V24H995.998V22.074L996.196 22.272C996.028 22.632 995.764 22.962 995.404 23.262C995.056 23.55 994.642 23.784 994.162 23.964C993.694 24.132 993.178 24.216 992.614 24.216ZM1003.61 24.108C1002.74 24.108 1002.08 23.856 1001.61 23.352C1001.14 22.848 1000.91 22.128 1000.91 21.192V15.702H999.125V14.352H999.575C999.983 14.352 1000.31 14.22 1000.55 13.956C1000.79 13.68 1000.91 13.338 1000.91 12.93V12.12H1002.26V14.352H1004.38V15.702H1002.26V21.192C1002.26 21.516 1002.3 21.804 1002.4 22.056C1002.5 22.296 1002.66 22.488 1002.89 22.632C1003.13 22.776 1003.44 22.848 1003.84 22.848C1003.94 22.848 1004.05 22.842 1004.18 22.83C1004.31 22.818 1004.43 22.806 1004.52 22.794V24C1004.38 24.036 1004.22 24.06 1004.04 24.072C1003.86 24.096 1003.71 24.108 1003.61 24.108ZM1011.03 24.216C1010.12 24.216 1009.29 24 1008.55 23.568C1007.8 23.124 1007.21 22.524 1006.76 21.768C1006.33 21 1006.12 20.13 1006.12 19.158C1006.12 18.198 1006.33 17.34 1006.76 16.584C1007.2 15.828 1007.78 15.234 1008.51 14.802C1009.25 14.358 1010.09 14.136 1011.03 14.136C1011.97 14.136 1012.8 14.352 1013.53 14.784C1014.28 15.216 1014.86 15.81 1015.28 16.566C1015.71 17.322 1015.93 18.186 1015.93 19.158C1015.93 20.142 1015.7 21.018 1015.26 21.786C1014.82 22.542 1014.22 23.136 1013.48 23.568C1012.75 24 1011.93 24.216 1011.03 24.216ZM1011.03 22.866C1011.68 22.866 1012.26 22.704 1012.78 22.38C1013.3 22.056 1013.72 21.612 1014.02 21.048C1014.33 20.484 1014.49 19.854 1014.49 19.158C1014.49 18.462 1014.33 17.838 1014.02 17.286C1013.72 16.734 1013.3 16.296 1012.78 15.972C1012.26 15.648 1011.68 15.486 1011.03 15.486C1010.38 15.486 1009.79 15.648 1009.27 15.972C1008.75 16.296 1008.34 16.734 1008.02 17.286C1007.71 17.838 1007.56 18.462 1007.56 19.158C1007.56 19.854 1007.71 20.484 1008.02 21.048C1008.34 21.612 1008.75 22.056 1009.27 22.38C1009.79 22.704 1010.38 22.866 1011.03 22.866Z" fill="white"/>
<path d="M1279.61 25.3333C1284.21 25.3333 1287.94 21.6024 1287.94 17C1287.94 12.3976 1284.21 8.66666 1279.61 8.66666C1275.01 8.66666 1271.28 12.3976 1271.28 17C1271.28 21.6024 1275.01 25.3333 1279.61 25.3333Z" stroke="white" stroke-linecap="round" stroke-linejoin="round"/>
<path d="M1279.61 20.3333V15.5" stroke="white" stroke-linecap="round" stroke-linejoin="round"/>
<path d="M1279.61 13.6667H1279.62" stroke="white" stroke-width="1.5" stroke-linecap="round" stroke-linejoin="round"/>
<g clip-path="url(#clip0_4001_109)">
<path d="M1325.01 24.65V22.95C1325.01 22.0483 1324.65 21.1835 1324.02 20.5458C1323.38 19.9082 1322.51 19.55 1321.61 19.55H1315.66C1314.76 19.55 1313.9 19.9082 1313.26 20.5458C1312.62 21.1835 1312.26 22.0483 1312.26 22.95V24.65" stroke="white" stroke-linecap="round" stroke-linejoin="round"/>
<path d="M1318.64 16.15C1320.51 16.15 1322.04 14.6278 1322.04 12.75C1322.04 10.8722 1320.51 9.35 1318.64 9.35C1316.76 9.35 1315.24 10.8722 1315.24 12.75C1315.24 14.6278 1316.76 16.15 1318.64 16.15Z" stroke="white" stroke-linecap="round" stroke-linejoin="round"/>
<path d="M1328.41 13.6V18.7" stroke="white" stroke-linecap="round" stroke-linejoin="round"/>
<path d="M1330.96 16.15H1325.86" stroke="white" stroke-linecap="round" stroke-linejoin="round"/>
</g>
<path d="M1362.76 25.3333C1367.36 25.3333 1371.1 21.6024 1371.1 17C1371.1 12.3976 1367.36 8.66666 1362.76 8.66666C1358.16 8.66666 1354.43 12.3976 1354.43 17C1354.43 21.6024 1358.16 25.3333 1362.76 25.3333Z" stroke="white" stroke-linecap="round" stroke-linejoin="round"/>
<path d="M1354.43 17H1371.1" stroke="white" stroke-linecap="round" stroke-linejoin="round"/>
<path d="M1362.76 8.66666C1364.85 10.9486 1366.03 13.91 1366.1 17C1366.03 20.09 1364.85 23.0514 1362.76 25.3333C1360.68 23.0514 1359.49 20.09 1359.43 17C1359.49 13.91 1360.68 10.9486 1362.76 8.66666Z" stroke="white" stroke-linecap="round" stroke-linejoin="round"/>
<defs>
<clipPath id="clip0_4001_109">
<rect width="20.4" height="20.4" fill="white" transform="translate(1311.41 6.8)"/>
</clipPath>
</defs>
</svg>
