<svg width="83" height="83" viewBox="0 0 83 83" fill="none" xmlns="http://www.w3.org/2000/svg">
<path d="M0.585938 0.585571C1.36693 -0.195117 2.63309 -0.195134 3.41406 0.585571L78.334 75.5104V23.6676C78.334 22.563 79.2294 21.6676 80.334 21.6676C81.4384 21.6678 82.334 22.5631 82.334 23.6676V80.3346C82.3336 81.3757 81.5372 82.2296 80.5205 82.3239C80.5179 82.3241 80.5153 82.3246 80.5127 82.3248C80.4538 82.3301 80.3943 82.3346 80.334 82.3346H23.667C22.5627 82.3346 21.6674 81.4388 21.667 80.3346C21.667 79.23 22.5624 78.3346 23.667 78.3346H75.501L0.585938 3.41467C-0.195076 2.63362 -0.195093 1.3666 0.585938 0.585571Z" fill="black"/>
</svg>
