<svg width="19" height="19" viewBox="0 0 19 19" fill="none" xmlns="http://www.w3.org/2000/svg">
<path d="M18.4008 7.41084L10.7608 10.7508L7.42079 18.3908C7.26079 18.7608 6.90079 18.9908 6.50079 18.9908H6.45079C6.24856 18.9805 6.05423 18.909 5.89352 18.7858C5.73282 18.6625 5.6133 18.4934 5.55079 18.3008L0.0507908 1.30084C-0.0073292 1.12672 -0.0157955 0.939865 0.0263386 0.76121C0.0684727 0.582556 0.159542 0.419172 0.289335 0.289379C0.419129 0.159585 0.582513 0.0685155 0.761168 0.0263814C0.939822 -0.0157526 1.12668 -0.00728491 1.30079 0.0508351L18.3108 5.54084C18.7108 5.67084 18.9808 6.03084 19.0008 6.44083C19.0208 6.85083 18.7808 7.24084 18.4008 7.41084Z" fill="black"/>
</svg>
