<?xml version="1.0" encoding="UTF-8"?>
<!-- Generator: Adobe Illustrator 12.0.0, SVG Export Plug-In  -->
<!DOCTYPE svg PUBLIC "-//W3C//DTD SVG 1.1//EN" "http://www.w3.org/Graphics/SVG/1.1/DTD/svg11.dtd">
<svg version="1.1" xmlns="http://www.w3.org/2000/svg" xmlns:xlink="http://www.w3.org/1999/xlink" xmlns:a="http://ns.adobe.com/AdobeSVGViewerExtensions/3.0/" width="501" height="491" viewBox="-0.3779297 -0.4121094 501 491" enable-background="new -0.3779297 -0.4121094 501 491" xml:space="preserve"><script xmlns=""/>
<defs>
</defs>
<path fill-rule="evenodd" clip-rule="evenodd" d="M398.0888672,0c-2.7421875,1.4848633-5.4814453,2.9697266-8.2236328,4.4536133  c-38.6015625,20.1010742-85.1962891,30.1499023-139.784668,30.2636719  C195.3774414,34.6035156,148.78125,24.5546875,110.0668945,4.4536133C107.3261719,2.9697266,104.5854492,1.4848633,101.9584961,0  L31.2661133,76.1738281C72.8364258,106.7807617,71.3530273,155.887207,26.8125,223.4956055  C-0.5966797,264.8369141-6.9907227,308.0058594,7.6269531,353.0029297  c18.2714844,56.4160156,62.1254883,86.7939453,131.6757813,91.2480469  c43.2832031,2.7392578,80.1708984,17.9306641,110.777832,45.6806641c30.4916992-27.75,67.3793945-42.9414063,110.6625977-45.6806641  c69.5488281-4.4541016,113.4042969-34.8320313,131.6767578-91.2480469  c14.5029297-44.9970703,8.2207031-88.1660156-19.0732422-129.5073242  c-44.6523438-67.6083984-46.1386719-116.7148438-4.5673828-147.3217773L398.0888672,0L398.0888672,0z"/>
<path fill-rule="evenodd" clip-rule="evenodd" fill="#FFFFFF" d="M106.0703125,12.1064453  c-0.7998047-0.3432617-1.5986328-0.800293-2.3989258-1.2573242L44.0576172,75.2597656  c38.6000977,33.2338867,35.2885742,84.2822266-10.0493164,152.918457c-2.6279297,3.996582-5.1396484,8.1088867-7.3095703,12.1049805  l326.965332-211.5043945c-30.6083984,9.7075195-65.2128906,14.5039063-103.5834961,14.6181641  C193.8920898,43.2827148,145.9262695,32.890625,106.0703125,12.1064453L106.0703125,12.1064453z"/>
<path fill-rule="evenodd" clip-rule="evenodd" fill="#FFFFFF" d="M227.0107422,240.3989258l-46.3666992,29.9194336v171.8759766  c16.4462891,4.4541016,31.862793,11.0771484,46.2529297,19.6425781L227.0107422,240.3989258L227.0107422,240.3989258z"/>
<path fill-rule="evenodd" clip-rule="evenodd" fill="#FFFFFF" d="M319.6298828,180.4418945l-46.3671875,29.9208984v251.4741211  c14.3916016-8.6787109,29.8085938-15.3027344,46.3671875-19.7558594V180.4418945L319.6298828,180.4418945z"/>
<path fill-rule="evenodd" clip-rule="evenodd" fill="#FFFFFF" d="M134.2783203,300.3544922l-46.3666992,29.921875v95.1318359  c13.7036133,5.0234375,29.1220703,8.2207031,46.3666992,9.8212891V300.3544922L134.2783203,300.3544922z"/>
<path fill-rule="evenodd" clip-rule="evenodd" fill="#FFFFFF" d="M41.5444336,360.3125l-16.9018555,10.8496094  c4.6831055,8.9072266,10.2783203,16.9003906,16.9018555,24.0957031V360.3125L41.5444336,360.3125z"/>
<path fill-rule="evenodd" clip-rule="evenodd" fill="#FFFFFF" d="M412.3632813,120.4848633l-46.4804688,29.9208984v284.8237305  c17.2451172-1.6005859,32.6611328-4.9121094,46.3671875-9.9355469L412.3632813,120.4848633L412.3632813,120.4848633z"/>
<path fill-rule="evenodd" clip-rule="evenodd" fill="#FFFFFF" d="M466.0371094,228.1782227  c-2.625-3.8823242-5.1367188-7.8803711-7.4208984-11.6479492v178.6142578  c11.1914063-12.2216797,19.7568359-27.1806641,25.5800781-44.7695313  C497.9013672,307.8916016,491.8476563,267.234375,466.0371094,228.1782227L466.0371094,228.1782227z"/>
<path fill-rule="evenodd" clip-rule="evenodd" fill="#FFFFFF" d="M373.5341797,43.8540039  c-1.2558594-3.0825195-3.9980469-3.769043-8.1103516-1.828125l-60.4111328,39.9726563  c-3.65625,3.8823242-5.484375,7.7651367-5.7119141,11.7617188v67.4946289  c1.2558594,8.4516602,5.2539063,10.7353516,12.1054688,7.0805664l52.9902344-33.5756836  c4.7978516-4.1103516,7.8818359-9.7075195,9.1376953-16.6738281V86.9091797l-26.8388672,16.3305664v19.7578125  l-14.8466797,9.9355469c-1.7119141,0.9140625-2.9677734,0.7998047-3.6533203-0.3432617  c-0.5722656-0.9140625-0.8007813-2.6269531-0.9140625-5.3662109l-0.5693359-34.4897461  c0.2275391-1.9418945,0.9111328-3.5410156,2.0527344-4.6831055l15.7607422-11.6494141  c3.4257813-2.7407227,5.2539063-2.625,5.4824219,0.2294922v3.6547852l23.5263672-15.6459961V43.8540039L373.5341797,43.8540039z"/>
<polygon fill-rule="evenodd" clip-rule="evenodd" fill="#FFFFFF" points="237.7460938,146.9785156 254.4199219,136.1308594   254.4199219,113.5180664 175.6196289,164.6816406 175.6196289,181.6977539 186.5825195,175.0742188 186.5825195,231.3759766   175.9624023,238.5708008 176.1904297,254.5595703 228.2680664,221.6689453 228.2680664,205.3378906 214.4487305,214.2451172   214.4487305,193.0039063 228.0390625,184.2104492 228.0390625,195.6293945 242.0859375,186.2651367 242.0859375,150.9765625   229.1806641,159.8852539 229.1806641,166.2792969 214.105957,174.9599609 214.105957,157.0302734 232.8354492,144.5825195   237.7460938,146.9785156 "/>
<polygon fill-rule="evenodd" clip-rule="evenodd" fill="#FFFFFF" points="159.859375,264.9501953 159.859375,243.3671875   137.3623047,257.5273438 137.3623047,279.7978516 159.859375,264.9501953 "/>
<polygon fill-rule="evenodd" clip-rule="evenodd" fill="#FFFFFF" points="260.5849609,178.1582031 260.5849609,200.3134766   283.0839844,185.5800781 283.0839844,163.9956055 260.5849609,178.1582031 "/>
<path fill-rule="evenodd" clip-rule="evenodd" fill="#FFFFFF" d="M120.1162109,205.4521484  c-1.7128906-0.9140625-4.2246094-1.0283203-7.765625-0.1142578l-55.8447266,34.6040039  c-5.824707,3.7670898-8.4516602,7.6499023-7.7670898,11.7612305l0.1152344,29.3505859  c0.4570313,4.453125,2.0546875,6.8535156,4.796875,7.0820313c2.8549805,0.3417969,6.965332-1.4863281,12.4482422-5.3681641  l23.2973633-14.8466797c4.4536133-1.7119141,7.1943359-1.5976563,8.1083984,0.34375v19.0703125l-18.7299805,12.5634766  c-3.0834961,1.7119141-4.3393555,0.4560547-3.8823242-3.65625v-10.6210938l-26.1538086,16.2197266v19.8701172  c-0.1137695,8.3349609,3.4272461,10.8496094,10.6230469,7.4238281l56.5297852-36.4316406  c4.9106445-2.6259766,7.1943359-8.2207031,7.0805664-16.5585938l-0.3432617-27.2939453  c-3.9980469-5.8251953-10.1640625-6.9682617-18.3867188-3.1992188l-24.7822266,15.1904297  c-2.3979492,0.9111328-3.7685547-0.1171875-4.2246094-2.7421875v-8.5654297c-0.2290039-1.2558594,0-2.5117188,0.7988281-3.6542969  c0.7988281-1.1416016,2.1699219-2.3984375,4.4536133-3.8837891l12.1064453-7.7651367  c2.8549805-1.5991211,4.6816406-1.2558594,5.2524414,1.2558594v6.2817383l25.1254883-15.5307617v-16.2167969  C122.2871094,207.7373047,121.3730469,206.2519531,120.1162109,205.4521484L120.1162109,205.4521484z"/>
<polygon fill-rule="evenodd" clip-rule="evenodd" fill="#FFFFFF" points="411.2216797,104.2680664 411.2216797,82.5693359   388.7226563,96.7304688 388.7226563,119.0009766 411.2216797,104.2680664 "/>
<path fill-rule="evenodd" clip-rule="evenodd" d="M190.2373047,93.1894531c0-14.9599609-5.3676758-27.7509766-15.8735352-38.2573242  c-10.621582-10.6210938-23.4116211-15.9887695-38.2587891-15.8735352  c-14.9594727-0.1152344-27.6367188,5.2524414-38.2583008,15.8735352  C87.2265625,65.4384766,81.9726563,78.2294922,81.9726563,93.1894531c0,14.847168,5.2539063,27.637207,15.8740234,38.2583008  c0.6850586,0.5712891,1.3710938,1.2558594,2.0561523,1.828125c10.1640625,9.3642578,22.1552734,14.0458984,36.2021484,14.0458984  c14.847168,0,27.637207-5.3662109,38.2587891-15.8740234C184.8696289,120.8266602,190.2373047,108.0366211,190.2373047,93.1894531  L190.2373047,93.1894531z M133.59375,44.3110352c0.9125977-0.1142578,1.7128906-0.1142578,2.6254883-0.1142578  c5.7104492,0,10.8491211,0.9130859,15.875,2.5131836c0.1137695,0.1137695,0.1137695,0.2275391,0.1137695,0.3417969  c13.1333008,23.4111328,14.2749023,43.512207,3.769043,60.0708008c-0.1142578-0.1137695-0.3432617-0.1137695-0.5712891-0.2290039  C158.0327148,84.0527344,150.8369141,63.1547852,133.59375,44.3110352L133.59375,44.3110352z M152.4360352,110.206543  c0.5708008,0,1.2558594,0,1.9418945,0.1137695c0.7988281,0.1142578,1.4848633,0.3432617,2.0561523,0.6850586  c0.2275391,0.2290039,0.4570313,0.4570313,0.6845703,0.7998047c0,0.1142578,0,0.1142578,0,0.1142578  c0,0.2290039,0.1142578,0.4570313,0,0.7998047c-0.1137695,0.5712891-0.4570313,1.2558594-1.1416016,1.940918  c-0.3432617,0.4570313-0.6865234,0.9140625-1.1420898,1.2568359c-1.027832,0.9130859-2.3989258,1.7119141-3.9980469,2.2841797  c-1.9404297,0.6845703-3.7685547,1.027832-5.4814453,1.027832c-0.2280273-0.1152344-0.4570313-0.1152344-0.6845703-0.1152344  c-1.2573242-0.2280273-2.0561523-0.6850586-2.5131836-1.4848633c-0.3417969-0.7988281-0.2280273-1.5991211,0.5722656-2.6259766  c0,0,0.112793-0.1137695,0.112793-0.2275391c0,0,0,0,0.1152344,0c1.1416016-1.4848633,2.9682617-2.6269531,5.2519531-3.5410156  C149.5810547,110.6635742,151.0649414,110.3203125,152.4360352,110.206543L152.4360352,110.206543z M149.8105469,107.1225586  c-1.0292969,0.2290039-1.828125,0.4570313-2.855957,0.9140625c-2.2836914,0.7988281-4.1118164,1.940918-5.5957031,3.3115234  c-25.6962891-4.5673828-38.3725586-22.6123047-38.1445313-54.2475586  c6.9663086-6.394043,14.9609375-10.5058594,23.8681641-12.1035156  C145.3554688,63.6103516,152.7792969,84.2822266,149.8105469,107.1225586L149.8105469,107.1225586z M184.1850586,83.2543945  c-0.2280273,0.6845703-0.4570313,1.4848633-0.6865234,2.2836914c-4.7954102,14.1621094-12.5605469,22.3847656-23.2973633,24.668457  c11.1938477-16.7880859,10.9648438-36.8886719-0.5693359-60.0708008c3.996582,2.1699219,7.6513672,5.0244141,11.0771484,8.4501953  C177.9033203,65.6660156,182.3569336,73.8901367,184.1850586,83.2543945L184.1850586,83.2543945z M171.0517578,127.3359375  c-0.1137695,0.1152344-0.2275391,0.2294922-0.3427734,0.3432617c-5.9389648,5.9384766-12.6762695,10.050293-20.2138672,12.3339844  c3.4257813-5.3676758,4.5678711-11.7631836,3.6538086-19.5283203c0.3427734-0.1137695,0.6860352-0.3432617,1.027832-0.5708008  C160.4306641,124.1396484,165.7983398,126.6523438,171.0517578,127.3359375L171.0517578,127.3359375z M159.0595703,116.3730469  c0.2290039-0.3432617,0.4570313-0.5712891,0.5722656-0.9130859c11.1923828-1.4848633,19.6425781-8.2236328,25.4672852-20.2148438  c-0.3432617,10.1645508-3.6547852,19.1870117-9.59375,27.0664063  C170.0239258,122.5405273,164.5424805,120.5986328,159.0595703,116.3730469L159.0595703,116.3730469z M139.7597656,121.1694336  c0.3432617,0.1157227,0.5712891,0.3432617,1.0283203,0.5712891c-8.5654297,7.1958008-21.4707031,9.3642578-38.6015625,6.2817383  c-0.2280273-0.1152344-0.3417969-0.2294922-0.4560547-0.3432617c-4.4545898-4.4536133-7.7666016-9.1362305-10.1640625-14.3886719  C107.4399414,122.7685547,123.4291992,125.3955078,139.7597656,121.1694336L139.7597656,121.1694336z M147.2973633,122.6547852  v-0.1142578c0.5712891,0,1.2558594-0.1137695,1.8266602-0.2290039c0.7988281,8.1083984-1.4848633,14.6181641-6.8525391,19.4145508  c-1.9404297,0.1142578-3.996582,0.2294922-6.0522461,0.3432617c-9.59375-0.1137695-18.2714844-2.5131836-25.9228516-7.4238281  C126.96875,135.7875977,139.3027344,131.7910156,147.2973633,122.6547852L147.2973633,122.6547852z M88.8242188,105.2958984  c-1.0268555-3.8828125-1.4838867-7.8808594-1.4838867-12.2202148c0-11.5341797,3.5395508-21.6987305,10.7353516-30.4916992  c1.1420898,30.6054688,14.6181641,48.4213867,40.4287109,53.5610352  C121.6025391,120.3710938,105.0424805,116.8300781,88.8242188,105.2958984L88.8242188,105.2958984z"/>
</svg>